<?xml version="1.0" standalone="no"?>
<!DOCTYPE svg PUBLIC "-//W3C//DTD SVG 20010904//EN"
 "http://www.w3.org/TR/2001/REC-SVG-20010904/DTD/svg10.dtd">
<svg version="1.0" xmlns="http://www.w3.org/2000/svg"
 width="507.000000pt" height="104.000000pt" viewBox="0 0 507.000000 104.000000"
 preserveAspectRatio="xMidYMid meet">

<g transform="translate(0.000000,104.000000) scale(0.100000,-0.100000)"
fill="#000000" stroke="none">
<path d="M101 568 c-1 -307 2 -387 13 -401 12 -16 41 -17 390 -17 287 1 376 4
376 13 0 7 4 6 10 -3 8 -12 10 -10 10 8 0 13 -4 20 -10 17 -6 -3 -10 1 -10 9
0 8 4 18 10 21 6 4 10 138 10 371 l0 364 -400 0 -399 0 0 -382z m497 229 c32
-10 54 -27 87 -67 25 -30 45 -58 45 -61 0 -4 15 -16 34 -27 19 -11 42 -32 52
-47 16 -25 16 -27 -11 -55 -16 -17 -36 -32 -46 -35 -9 -3 -19 -18 -22 -34 -10
-46 -68 -113 -126 -143 -127 -67 -292 -8 -347 125 -9 23 -31 51 -47 62 -17 11
-37 30 -45 42 -13 21 -12 25 21 58 19 19 42 35 50 35 9 0 19 9 22 20 4 11 18
34 32 50 14 17 23 36 20 44 -3 8 1 22 8 33 12 17 24 19 122 16 59 -1 127 -9
151 -16z m42 -512 c-19 -14 -45 -25 -59 -24 -22 0 -20 3 14 15 22 8 44 19 49
24 6 6 14 10 20 10 5 0 -5 -11 -24 -25z m-220 -21 c0 -2 -9 -4 -20 -4 -11 0
-20 4 -20 9 0 5 9 7 20 4 11 -3 20 -7 20 -9z"/>
<path d="M342 792 c-9 -6 -12 -36 -10 -113 l3 -104 118 -3 c67 -1 117 -7 117
-12 0 -6 -22 -10 -50 -10 -40 0 -51 -4 -61 -21 -8 -16 -8 -24 2 -33 9 -8 11
-7 6 5 -6 17 9 39 27 39 6 0 5 -5 -1 -11 -12 -12 -7 -39 8 -39 4 0 6 6 3 13
-3 8 1 19 9 26 11 9 17 8 27 -4 21 -26 4 -45 -40 -45 -22 0 -40 -4 -40 -10 0
-5 25 -10 55 -10 30 0 55 -4 55 -10 0 -19 26 -10 53 18 33 35 33 42 2 72 -24
23 -25 23 -5 37 22 16 60 83 60 108 0 8 -9 15 -19 15 -16 0 -20 8 -23 38 l-3
37 -90 3 c-49 2 -94 7 -99 12 -12 12 -86 13 -104 2z m71 -19 c-13 -2 -33 -2
-45 0 -13 2 -3 4 22 4 25 0 35 -2 23 -4z m215 -45 l3 -28 -115 0 -115 0 -25
-42 -26 -43 0 66 c0 36 3 69 7 73 4 3 66 5 137 4 l131 -3 3 -27z m32 -55 c0
-5 -7 -16 -15 -27 -12 -15 -33 -19 -140 -23 -120 -6 -125 -5 -119 13 15 42 23
44 150 44 68 0 124 -3 124 -7z m-44 -154 c18 -20 18 -22 1 -34 -23 -17 -72 -8
-56 11 6 7 8 17 5 23 -5 8 7 18 25 20 3 1 14 -8 25 -20z"/>
<path d="M507 733 c18 -2 50 -2 70 0 21 2 7 4 -32 4 -38 0 -55 -2 -38 -4z"/>
<path d="M507 713 c18 -2 50 -2 70 0 21 2 7 4 -32 4 -38 0 -55 -2 -38 -4z"/>
<path d="M207 602 l-27 -28 33 -32 33 -32 27 28 c33 34 33 43 4 70 -30 28 -38
28 -70 -6z m53 -46 c-19 -19 -21 -19 -37 -3 -16 15 -16 18 2 37 17 19 19 19
37 3 18 -16 18 -17 -2 -37z"/>
<path d="M717 602 l-28 -29 21 -26 c27 -34 53 -34 80 0 l21 26 -28 29 c-15 15
-30 28 -33 28 -3 0 -18 -13 -33 -28z m57 -15 c16 -25 -16 -56 -38 -37 -19 15
-20 32 -4 48 15 15 28 11 42 -11z"/>
<path d="M380 510 c0 -5 5 -10 10 -10 6 0 10 5 10 10 0 6 -4 10 -10 10 -5 0
-10 -4 -10 -10z"/>
<path d="M410 510 c0 -5 5 -10 10 -10 6 0 10 5 10 10 0 6 -4 10 -10 10 -5 0
-10 -4 -10 -10z"/>
<path d="M382 442 c-18 -15 -32 -33 -32 -40 0 -13 59 -71 73 -72 4 0 7 7 7 15
0 12 15 15 73 15 44 0 67 4 58 9 -9 6 -10 11 -2 15 7 5 8 13 1 25 -5 10 -7 21
-4 23 2 3 -24 8 -58 12 -35 3 -64 11 -66 16 -5 15 -14 12 -50 -18z m68 -37 c0
-6 -10 -19 -21 -29 -21 -17 -22 -17 -42 3 l-21 21 23 24 c21 23 24 23 42 8 10
-9 19 -21 19 -27z m34 9 c3 -9 3 -21 -1 -26 -3 -7 -1 -8 6 -4 6 4 9 16 6 27
-7 22 10 26 19 4 10 -26 -5 -45 -35 -45 -25 0 -28 3 -21 18 5 9 7 23 5 30 -7
18 14 15 21 -4z m60 1 c6 -17 -2 -45 -13 -45 -4 0 -8 14 -8 30 0 32 11 40 21
15z"/>
<path d="M580 400 c0 -5 5 -10 10 -10 6 0 10 5 10 10 0 6 -4 10 -10 10 -5 0
-10 -4 -10 -10z"/>
<path d="M610 400 c0 -5 5 -10 10 -10 6 0 10 5 10 10 0 6 -4 10 -10 10 -5 0
-10 -4 -10 -10z"/>
<path d="M1090 670 l0 -100 70 0 c63 0 70 2 70 20 0 17 -7 20 -45 20 -38 0
-45 3 -45 20 0 17 7 20 40 20 33 0 40 3 40 20 0 17 -7 20 -40 20 -33 0 -40 3
-40 20 0 17 7 20 45 20 38 0 45 3 45 20 0 18 -7 20 -70 20 l-70 0 0 -100z"/>
<path d="M1270 750 c0 -15 7 -20 25 -20 18 0 25 5 25 20 0 15 -7 20 -25 20
-18 0 -25 -5 -25 -20z"/>
<path d="M1738 755 c-59 -32 -58 -139 2 -170 48 -25 120 -16 120 15 0 15 -6
17 -40 13 -51 -7 -70 8 -70 57 0 49 19 64 70 57 34 -4 40 -2 40 13 0 31 -75
40 -122 15z"/>
<path d="M1900 670 l0 -100 25 0 25 0 0 100 0 100 -25 0 -25 0 0 -100z"/>
<path d="M2460 733 c0 -29 -3 -34 -12 -25 -32 32 -98 -11 -98 -63 0 -52 66
-95 98 -63 9 9 12 9 12 0 0 -7 11 -12 25 -12 l25 0 0 100 0 100 -25 0 c-22 0
-25 -4 -25 -37z m-12 -55 c30 -30 -1 -94 -33 -68 -25 20 -13 80 15 80 3 0 11
-5 18 -12z"/>
<path d="M1270 645 c0 -73 1 -75 25 -75 24 0 25 2 25 75 0 73 -1 75 -25 75
-24 0 -25 -2 -25 -75z"/>
<path d="M1360 705 c0 -10 10 -15 30 -15 39 0 38 -9 -5 -50 -19 -19 -35 -42
-35 -52 0 -15 9 -18 65 -18 50 0 65 3 65 14 0 10 -13 16 -36 18 l-35 3 35 42
c53 61 49 73 -24 73 -47 0 -60 -3 -60 -15z"/>
<path d="M1535 695 c-32 -31 -32 -69 0 -100 34 -35 125 -34 125 1 0 11 -9 13
-38 8 -28 -4 -41 -2 -51 10 -12 14 -8 16 43 16 50 0 56 2 56 20 0 32 -44 70
-80 70 -19 0 -40 -9 -55 -25z m83 -22 c2 -9 -7 -13 -28 -13 -28 0 -31 2 -20
15 15 18 41 16 48 -2z"/>
<path d="M2005 695 c-32 -31 -32 -69 0 -100 48 -49 135 -17 135 50 0 67 -87
99 -135 50z m73 -17 c32 -32 0 -95 -34 -67 -24 20 -12 79 16 79 3 0 11 -5 18
-12z"/>
<path d="M2170 661 c0 -41 5 -65 16 -75 18 -19 55 -21 72 -4 9 9 12 9 12 0 0
-7 11 -12 25 -12 24 0 25 2 25 75 0 73 -1 75 -24 75 -23 0 -25 -4 -28 -52 -3
-46 -6 -53 -25 -56 -22 -3 -23 0 -23 52 0 53 -1 56 -25 56 -24 0 -25 -3 -25
-59z"/>
</g>
</svg>
