<?xml version="1.0" encoding="UTF-8"?>
<svg version="1.1" xmlns="http://www.w3.org/2000/svg" width="507" height="104">
<path d="M0 0 C26.4 0 52.8 0 80 0 C80 26.4 80 52.8 80 80 C53.6 80 27.2 80 0 80 C0 53.6 0 27.2 0 0 Z " fill="#667F8D" transform="translate(10,9)"/>
<path d="M0 0 C3.64567713 -0.08816905 7.29107474 -0.14077948 10.9375 -0.1875 C12.46987305 -0.22520508 12.46987305 -0.22520508 14.03320312 -0.26367188 C21.37197662 -0.33401156 28.62390116 -0.15181256 34.234375 5.0859375 C34.73453125 5.84132813 35.2346875 6.59671875 35.75 7.375 C38.26202148 10.95202598 40.8136983 13.98139839 44 17 C45.66666667 18.66666667 47.33333333 20.33333333 49 22 C48.505 23.485 48.505 23.485 48 25 C45.525 22.03 45.525 22.03 43 19 C40.37812506 20.04874998 39.20628639 20.64931313 37.75 23.125 C37.5025 23.74375 37.255 24.3625 37 25 C38.10041919 26.68681738 38.10041919 26.68681738 40 28 C43.14921909 27.76716851 43.14921909 27.76716851 46 27 C45.505 28.485 45.505 28.485 45 30 C42.9375 30.6875 42.9375 30.6875 41 31 C40.855625 31.94875 40.71125 32.8975 40.5625 33.875 C40 37 40 37 39 39 C36.93359375 39.8515625 36.93359375 39.8515625 34.4375 40.625 C33.61121094 40.88539062 32.78492188 41.14578125 31.93359375 41.4140625 C30.97646484 41.70410156 30.97646484 41.70410156 30 42 C30 41.34 30 40.68 30 40 C27.03 40.495 27.03 40.495 24 41 C23.67 39.35 23.34 37.7 23 36 C18.71 36 14.42 36 10 36 C10 35.34 10 34.68 10 34 C9.50371094 34.44472656 9.00742187 34.88945313 8.49609375 35.34765625 C4.92142261 38.32541836 2.93724505 39.93854131 -1.8125 40.25 C-5 39 -5 39 -6.9375 36.0625 C-8 33 -8 33 -8 31 C-8.5775 30.7525 -9.155 30.505 -9.75 30.25 C-12.38288682 28.7872851 -14.12450669 27.36173231 -16 25 C-16.10342618 21.79378848 -14.73378918 20.69175589 -12.625 18.25 C-10 16 -10 16 -7 16 C-6.731875 15.071875 -6.46375 14.14375 -6.1875 13.1875 C-5 10 -5 10 -3.5 8.5625 C-1.17671972 6.14241637 -0.84872401 3.18637331 0 0 Z " fill="#EEF0F1" transform="translate(33,23)"/>
<path d="M0 0 C0.9075 0.00257812 1.815 0.00515625 2.75 0.0078125 C4.11125 0.00394531 4.11125 0.00394531 5.5 0 C7.75 0.1328125 7.75 0.1328125 8.75 1.1328125 C10.07886073 1.27667354 11.41448587 1.35957538 12.75 1.4140625 C13.554375 1.45144531 14.35875 1.48882813 15.1875 1.52734375 C16.033125 1.56214844 16.87875 1.59695312 17.75 1.6328125 C19.41684971 1.70141759 21.08353774 1.77411473 22.75 1.8515625 C23.4925 1.88185547 24.235 1.91214844 25 1.94335938 C26.75 2.1328125 26.75 2.1328125 27.75 3.1328125 C27.79092937 5.46578683 27.79241723 7.79986475 27.75 10.1328125 C30.225 10.6278125 30.225 10.6278125 32.75 11.1328125 C28.75 22.1328125 28.75 22.1328125 24.75 24.1328125 C25.7709375 24.9990625 25.7709375 24.9990625 26.8125 25.8828125 C28.75 28.1328125 28.75 28.1328125 28.75 30.1328125 C27.45895225 32.714908 25.9744293 34.30092955 23.75 36.1328125 C22.76 36.1328125 21.77 36.1328125 20.75 36.1328125 C20.75 35.4728125 20.75 34.8128125 20.75 34.1328125 C17.12 34.1328125 13.49 34.1328125 9.75 34.1328125 C9.75 33.4728125 9.75 32.8128125 9.75 32.1328125 C14.7 32.1328125 19.65 32.1328125 24.75 32.1328125 C24.75 30.8128125 24.75 29.4928125 24.75 28.1328125 C24.09 27.8028125 23.43 27.4728125 22.75 27.1328125 C22.09 27.4628125 21.43 27.7928125 20.75 28.1328125 C20.42 29.1228125 20.09 30.1128125 19.75 31.1328125 C19.09 30.1428125 18.43 29.1528125 17.75 28.1328125 C16.76 28.1328125 15.77 28.1328125 14.75 28.1328125 C14.75 29.1228125 14.75 30.1128125 14.75 31.1328125 C14.09 31.1328125 13.43 31.1328125 12.75 31.1328125 C12.75 29.8128125 12.75 28.4928125 12.75 27.1328125 C12.09 27.1328125 11.43 27.1328125 10.75 27.1328125 C10.42 28.4528125 10.09 29.7728125 9.75 31.1328125 C8.1 30.8028125 6.45 30.4728125 4.75 30.1328125 C4.75 29.4728125 4.75 28.8128125 4.75 28.1328125 C6.4 28.1328125 8.05 28.1328125 9.75 28.1328125 C9.75 27.1428125 9.75 26.1528125 9.75 25.1328125 C13.38 25.1328125 17.01 25.1328125 20.75 25.1328125 C20.75 24.4728125 20.75 23.8128125 20.75 23.1328125 C20.05849854 23.13804932 19.36699707 23.14328613 18.65454102 23.14868164 C15.54053648 23.1693875 12.42654639 23.18245213 9.3125 23.1953125 C8.22388672 23.20369141 7.13527344 23.21207031 6.01367188 23.22070312 C4.97919922 23.22392578 3.94472656 23.22714844 2.87890625 23.23046875 C1.92056885 23.23570557 0.96223145 23.24094238 -0.02514648 23.24633789 C-2.25 23.1328125 -2.25 23.1328125 -3.25 22.1328125 C-3.34899523 20.58325691 -3.38079524 19.02927577 -3.3828125 17.4765625 C-3.38410156 16.53683594 -3.38539062 15.59710938 -3.38671875 14.62890625 C-3.38285156 13.64019531 -3.37898438 12.65148437 -3.375 11.6328125 C-3.37886719 10.64410156 -3.38273437 9.65539062 -3.38671875 8.63671875 C-3.38542969 7.69699219 -3.38414063 6.75726562 -3.3828125 5.7890625 C-3.38168457 4.92087891 -3.38055664 4.05269531 -3.37939453 3.15820312 C-3.19503892 0.27251609 -2.89004189 0.17059275 0 0 Z " fill="#1E2E38" transform="translate(36.25,23.8671875)"/>
<path d="M0 0 C0 0.66 0 1.32 0 2 C4.29 2 8.58 2 13 2 C13.66 3.32 14.32 4.64 15 6 C16.65 6 18.3 6 20 6 C20 6.66 20 7.32 20 8 C20.763125 7.484375 21.52625 6.96875 22.3125 6.4375 C23.199375 5.963125 24.08625 5.48875 25 5 C25.99 5.33 26.98 5.66 28 6 C24.04268902 11.67214574 19.63198459 14.88818919 13 17 C6.2375674 17.93246972 -0.21820241 17.8873573 -6.2109375 14.35546875 C-9.46742235 11.88821931 -12.27361322 9.03310529 -15 6 C-13.02136482 5.49402884 -11.07968625 5.01285262 -9.0625 4.6875 C-5.57197293 3.52399098 -3.68378116 0 0 0 Z " fill="#D1DADC" transform="translate(43,57)"/>
<path d="M0 0 C3.64567713 -0.08816905 7.29107474 -0.14077948 10.9375 -0.1875 C12.46987305 -0.22520508 12.46987305 -0.22520508 14.03320312 -0.26367188 C21.37197662 -0.33401156 28.62390116 -0.15181256 34.234375 5.0859375 C34.73453125 5.84132813 35.2346875 6.59671875 35.75 7.375 C38.26202148 10.95202598 40.8136983 13.98139839 44 17 C45.66666667 18.66666667 47.33333333 20.33333333 49 22 C48.505 23.485 48.505 23.485 48 25 C45.525 22.03 45.525 22.03 43 19 C40.37812506 20.04874998 39.20628639 20.64931313 37.75 23.125 C37.5025 23.74375 37.255 24.3625 37 25 C38.10041919 26.68681738 38.10041919 26.68681738 40 28 C43.14921909 27.76716851 43.14921909 27.76716851 46 27 C45.505 28.485 45.505 28.485 45 30 C42.9375 30.6875 42.9375 30.6875 41 31 C40.855625 31.94875 40.71125 32.8975 40.5625 33.875 C40 37 40 37 39 39 C36.93359375 39.8515625 36.93359375 39.8515625 34.4375 40.625 C33.61121094 40.88539062 32.78492188 41.14578125 31.93359375 41.4140625 C31.29550781 41.60742188 30.65742187 41.80078125 30 42 C30 41.34 30 40.68 30 40 C29.030625 40.185625 28.06125 40.37125 27.0625 40.5625 C26.051875 40.706875 25.04125 40.85125 24 41 C23 40 23 40 22.9375 37.4375 C22.958125 36.633125 22.97875 35.82875 23 35 C23.33 35.66 23.66 36.32 24 37 C26.62901288 35.47793991 28.84365964 34.15634036 31 32 C30.66306057 28.63060567 29.11180592 26.57089417 27 24 C27.99 24 28.98 24 30 24 C30.268125 23.278125 30.53625 22.55625 30.8125 21.8125 C32 19 32 19 33.625 16.3125 C35.17035846 14.16188894 35.17035846 14.16188894 35 12 C33.68 11.67 32.36 11.34 31 11 C30.67 8.69 30.34 6.38 30 4 C28.71222656 3.93941406 27.42445312 3.87882812 26.09765625 3.81640625 C24.41925841 3.73201753 22.74087364 3.6473687 21.0625 3.5625 C20.21236328 3.52318359 19.36222656 3.48386719 18.48632812 3.44335938 C17.27299805 3.38051758 17.27299805 3.38051758 16.03515625 3.31640625 C14.91185913 3.26141968 14.91185913 3.26141968 13.76586914 3.20532227 C12 3 12 3 11 2 C9.14712498 1.92773498 7.29166122 1.9161878 5.4375 1.9375 C4.42558594 1.94652344 3.41367187 1.95554687 2.37109375 1.96484375 C1.58863281 1.97644531 0.80617187 1.98804687 0 2 C0 1.34 0 0.68 0 0 Z " fill="#EDEFF0" transform="translate(33,23)"/>
<path d="M0 0 C1.5631897 0.00785522 1.5631897 0.00785522 3.15795898 0.01586914 C4.28266602 0.0190918 5.40737305 0.02231445 6.56616211 0.02563477 C7.75016602 0.03401367 8.93416992 0.04239258 10.15405273 0.05102539 C11.34192383 0.05553711 12.52979492 0.06004883 13.75366211 0.06469727 C16.69967499 0.07652864 19.64558954 0.09301252 22.59155273 0.11352539 C21.38466018 3.21696338 20.08558327 6.12546432 18.59155273 9.11352539 C10.01155273 9.11352539 1.43155273 9.11352539 -7.40844727 9.11352539 C-2.92051578 0.13766243 -2.92051578 0.13766243 0 0 Z " fill="#5DB8E8" transform="translate(43.408447265625,35.886474609375)"/>
<path d="M0 0 C1.65 0 3.3 0 5 0 C5 6.6 5 13.2 5 20 C-7.43146979 20.36925158 -7.43146979 20.36925158 -9.89453125 18.76953125 C-11.28594701 16.5422827 -11.40116032 15.11603249 -11.375 12.5 C-11.38273438 11.7265625 -11.39046875 10.953125 -11.3984375 10.15625 C-10.90346131 7.47755532 -10.1965075 6.58329488 -8 5 C-4.3125 4.8125 -4.3125 4.8125 -1 5 C-0.67 3.35 -0.34 1.7 0 0 Z M-4 9 C-5.29633621 10.06645115 -5.29633621 10.06645115 -5.0625 12.5625 C-5.041875 13.366875 -5.02125 14.17125 -5 15 C-3.68 15.33 -2.36 15.66 -1 16 C0.00217064 12.41672247 0.00217064 12.41672247 -1 9 C-1.99 9 -2.98 9 -4 9 Z " fill="#000000" transform="translate(246,27)"/>
<path d="M0 0 C4.62 0 9.24 0 14 0 C14 1.32 14 2.64 14 4 C11.36 4 8.72 4 6 4 C6 5.32 6 6.64 6 8 C8.64 8 11.28 8 14 8 C14 9.32 14 10.64 14 12 C11.36 12 8.72 12 6 12 C6 13.32 6 14.64 6 16 C8.97 16 11.94 16 15 16 C15 17.32 15 18.64 15 20 C10.05 20 5.1 20 0 20 C0 13.4 0 6.8 0 0 Z " fill="#000000" transform="translate(109,27)"/>
<path d="M0 0 C0.98226562 0.00644531 1.96453125 0.01289063 2.9765625 0.01953125 C5.375 0.1875 5.375 0.1875 6.375 1.1875 C6.41563832 2.85367115 6.417721 4.52138095 6.375 6.1875 C4.35677083 5.86197917 2.33854167 5.53645833 0.3203125 5.2109375 C-0.32164062 5.20320313 -0.96359375 5.19546875 -1.625 5.1875 C-3.94063087 7.07250271 -3.94063087 7.07250271 -3.875 10.1875 C-3.94063087 13.30249729 -3.94063087 13.30249729 -1.625 15.1875 C0.3681567 15.21125926 0.3681567 15.21125926 2.5 14.8125 C3.77875 14.60625 5.0575 14.4 6.375 14.1875 C6.417721 15.85361905 6.41563832 17.52132885 6.375 19.1875 C4.64915266 20.91334734 2.41290633 20.4408507 0.0625 20.5 C-5.23560209 20.46564136 -5.23560209 20.46564136 -8.25 18.3125 C-10.85279856 14.28999313 -10.9992379 10.90289749 -10.625 6.1875 C-8.76532085 0.75151478 -5.39819174 -0.07833787 0 0 Z " fill="#000000" transform="translate(179.625,26.8125)"/>
<path d="M0 0 C0.86625 -0.01933594 1.7325 -0.03867187 2.625 -0.05859375 C5 0.4375 5 0.4375 6.8125 2.15234375 C8 4.4375 8 4.4375 8 9.4375 C4.7 9.4375 1.4 9.4375 -2 9.4375 C-2 10.0975 -2 10.7575 -2 11.4375 C1.3 11.1075 4.6 10.7775 8 10.4375 C7.67 12.0875 7.34 13.7375 7 15.4375 C5.06318839 15.51857583 3.1254066 15.57672475 1.1875 15.625 C0.10855469 15.65980469 -0.97039062 15.69460937 -2.08203125 15.73046875 C-5 15.4375 -5 15.4375 -6.86328125 14.20703125 C-8.29444126 11.97914299 -8.40136288 10.5737878 -8.375 7.9375 C-8.38273438 7.1640625 -8.39046875 6.390625 -8.3984375 5.59375 C-7.50036243 0.73357904 -4.54397824 0.00676187 0 0 Z M-2 4.4375 C-2 5.0975 -2 5.7575 -2 6.4375 C-0.68 6.4375 0.64 6.4375 2 6.4375 C2 5.7775 2 5.1175 2 4.4375 C0.68 4.4375 -0.64 4.4375 -2 4.4375 Z " fill="#000000" transform="translate(159,31.5625)"/>
<path d="M0 0 C-4 11 -4 11 -8 13 C-7.319375 13.5775 -6.63875 14.155 -5.9375 14.75 C-4 17 -4 17 -4 19 C-5.29104775 21.5820955 -6.7755707 23.16811705 -9 25 C-9.99 25 -10.98 25 -12 25 C-12 24.34 -12 23.68 -12 23 C-15.63 23 -19.26 23 -23 23 C-23 22.34 -23 21.68 -23 21 C-18.05 21 -13.1 21 -8 21 C-8 19.68 -8 18.36 -8 17 C-8.66 16.67 -9.32 16.34 -10 16 C-10.66 16.33 -11.32 16.66 -12 17 C-12.33 17.99 -12.66 18.98 -13 20 C-13.66 19.01 -14.32 18.02 -15 17 C-15.99 17 -16.98 17 -18 17 C-18 17.99 -18 18.98 -18 20 C-18.66 20 -19.32 20 -20 20 C-20 18.68 -20 17.36 -20 16 C-20.66 16 -21.32 16 -22 16 C-22.33 17.32 -22.66 18.64 -23 20 C-24.65 19.67 -26.3 19.34 -28 19 C-28 18.34 -28 17.68 -28 17 C-26.35 17 -24.7 17 -23 17 C-23 16.01 -23 15.02 -23 14 C-19.37 14 -15.74 14 -12 14 C-11.67 13.01 -11.34 12.02 -11 11 C-18.26 11 -25.52 11 -33 11 C-33 10.67 -33 10.34 -33 10 C-24.42 10 -15.84 10 -7 10 C-6.34 8.35 -5.68 6.7 -5 5 C-4.34 3.68 -3.68 2.36 -3 1 C-10.92 1 -18.84 1 -27 1 C-27 0.67 -27 0.34 -27 0 C-22.87536584 -0.19622046 -18.75028427 -0.38050216 -14.625 -0.5625 C-13.449375 -0.61857422 -12.27375 -0.67464844 -11.0625 -0.73242188 C-9.94101562 -0.78076172 -8.81953125 -0.82910156 -7.6640625 -0.87890625 C-6.10872803 -0.94960327 -6.10872803 -0.94960327 -4.52197266 -1.02172852 C-2 -1 -2 -1 0 0 Z " fill="#394C58" transform="translate(69,35)"/>
<path d="M0 0 C3 1 3 1 4.10546875 3.0390625 C4.46253906 3.89242187 4.81960937 4.74578125 5.1875 5.625 C8.11958555 11.80806863 12.18933354 16.12930919 18.36328125 19.16015625 C25.24552944 21.35227975 32.86533499 20.95747425 39.4375 18 C45.45714155 14.54482363 48.86526304 9.88842136 51.375 3.5 C51.58125 2.675 51.7875 1.85 52 1 C52.99 1 53.98 1 55 1 C52.91761108 9.56754297 48.87437718 14.93278473 42 20.375 C35.66211121 23.8080231 29.12528164 25.13356753 22 24 C12.33916795 20.64828276 6.23619532 15.42845666 1.0625 6.75 C0 4 0 4 0 0 Z " fill="#25353F" transform="translate(22,53)"/>
<path d="M0 0 C2.6875 2.0625 2.6875 2.0625 4 5 C3.94060389 8.4449742 3.83462292 10.86972695 1.75390625 13.6875 C-0.58276445 15.4360999 -2.10553085 15.40084347 -5 15.375 C-5.86625 15.38273437 -6.7325 15.39046875 -7.625 15.3984375 C-10 15 -10 15 -11.7890625 13.7578125 C-13.31924202 11.53658417 -13.40181372 10.18137219 -13.375 7.5 C-13.38273438 6.7265625 -13.39046875 5.953125 -13.3984375 5.15625 C-12.15021476 -1.59883779 -5.50124192 -0.94384053 0 0 Z M-6 4 C-7.29633621 5.06645115 -7.29633621 5.06645115 -7.0625 7.5625 C-7.041875 8.366875 -7.02125 9.17125 -7 10 C-5.68 10.33 -4.36 10.66 -3 11 C-1.99782936 7.41672247 -1.99782936 7.41672247 -3 4 C-3.99 4 -4.98 4 -6 4 Z " fill="#000000" transform="translate(211,32)"/>
<path d="M0 0 C0 0.66 0 1.32 0 2 C4.29 2 8.58 2 13 2 C13 2.66 13 3.32 13 4 C12.01 4.33 11.02 4.66 10 5 C9.67 6.65 9.34 8.3 9 10 C10.65 10 12.3 10 14 10 C14 10.33 14 10.66 14 11 C9.38 11 4.76 11 0 11 C0 11.99 0 12.98 0 14 C-2.95409701 12.62845496 -5.44008376 11.01136276 -8 9 C-7.70100785 5.41209425 -7.23013399 4.21833224 -4.5625 1.6875 C-2 0 -2 0 0 0 Z " fill="#293841" transform="translate(43,57)"/>
<path d="M0 0 C1.65 0 3.3 0 5 0 C5.33 3.3 5.66 6.6 6 10 C6.66 10 7.32 10 8 10 C8.66 6.7 9.32 3.4 10 0 C11.65 0 13.3 0 15 0 C15 4.95 15 9.9 15 15 C5.0390625 15.1953125 5.0390625 15.1953125 2 15 C0 13 0 13 -0.1953125 9.9609375 C-0.17210937 8.77757812 -0.14890625 7.59421875 -0.125 6.375 C-0.10695312 5.18648437 -0.08890625 3.99796875 -0.0703125 2.7734375 C-0.04710937 1.85820313 -0.02390625 0.94296875 0 0 Z " fill="#000000" transform="translate(217,32)"/>
<path d="M0 0 C8.58 0 17.16 0 26 0 C26 1.98 26 3.96 26 6 C25.35450195 6.0093457 24.70900391 6.01869141 24.04394531 6.02832031 C21.11186056 6.08209101 18.18135992 6.1657234 15.25 6.25 C13.72632813 6.27126953 13.72632813 6.27126953 12.171875 6.29296875 C6.317854 6.36991535 6.317854 6.36991535 1.296875 9.046875 C0.86890625 9.69140625 0.4409375 10.3359375 0 11 C0 7.37 0 3.74 0 0 Z " fill="#B1BCC2" transform="translate(36,28)"/>
<path d="M0 0 C4.62 0 9.24 0 14 0 C12.92402815 5.37985925 11.91685634 6.48487252 8 10 C10.97 10.495 10.97 10.495 14 11 C14 12.32 14 13.64 14 15 C9.38 15 4.76 15 0 15 C0 10 0 10 2.5 7.1875 C3.7375 6.1046875 3.7375 6.1046875 5 5 C3.35 4.67 1.7 4.34 0 4 C0 2.68 0 1.36 0 0 Z " fill="#000000" transform="translate(135,32)"/>
<path d="M0 0 C1.64574566 -0.02688151 3.29161413 -0.04634123 4.9375 -0.0625 C5.85402344 -0.07410156 6.77054688 -0.08570312 7.71484375 -0.09765625 C10 0 10 0 11 1 C12.32886073 1.14386104 13.66448587 1.22676288 15 1.28125 C15.804375 1.31863281 16.60875 1.35601563 17.4375 1.39453125 C18.283125 1.42933594 19.12875 1.46414062 20 1.5 C21.66684971 1.56860509 23.33353774 1.64130223 25 1.71875 C25.7425 1.74904297 26.485 1.77933594 27.25 1.81054688 C29 2 29 2 30 3 C30.04080783 4.99958364 30.04254356 7.00045254 30 9 C29.01 9.495 29.01 9.495 28 10 C28 8.02 28 6.04 28 4 C19.42 4 10.84 4 2 4 C2.33 7.96 2.66 11.92 3 16 C2.34 16.66 1.68 17.32 1 18 C0.83156069 15.75013201 0.66531346 13.50009983 0.5 11.25 C0.4071875 9.99703125 0.314375 8.7440625 0.21875 7.453125 C0.06161598 4.97265229 0 2.48544483 0 0 Z " fill="#526771" transform="translate(34,24)"/>
<path d="M0 0 C8.58 0 17.16 0 26 0 C25.34 1.65 24.68 3.3 24 5 C15.42 5 6.84 5 -2 5 C-1.34 3.35 -0.68 1.7 0 0 Z " fill="#2E88BD" transform="translate(38,40)"/>
<path d="M0 0 C1.65 0 3.3 0 5 0 C5 6.6 5 13.2 5 20 C3.35 20 1.7 20 0 20 C0 13.4 0 6.8 0 0 Z " fill="#000000" transform="translate(190,27)"/>
<path d="M0 0 C1.4540625 0.0309375 1.4540625 0.0309375 2.9375 0.0625 C2.9375 0.7225 2.9375 1.3825 2.9375 2.0625 C1.6175 2.0625 0.2975 2.0625 -1.0625 2.0625 C-0.0725 3.3825 0.9175 4.7025 1.9375 6.0625 C3.2575 5.7325 4.5775 5.4025 5.9375 5.0625 C5.9375 7.3725 5.9375 9.6825 5.9375 12.0625 C4.29175434 12.08938151 2.64588587 12.10884123 1 12.125 C0.08347656 12.13660156 -0.83304688 12.14820312 -1.77734375 12.16015625 C-4.0625 12.0625 -4.0625 12.0625 -5.0625 11.0625 C-4.99871032 9.39237017 -4.86221885 7.72469015 -4.6875 6.0625 C-4.59726563 5.155 -4.50703125 4.2475 -4.4140625 3.3125 C-3.87259148 -0.15291453 -3.62659887 0.07401222 0 0 Z M-3.0625 7.0625 C-2.7325 8.0525 -2.4025 9.0425 -2.0625 10.0625 C-1.0725 9.7325 -0.0825 9.4025 0.9375 9.0625 C-0.3825 8.4025 -1.7025 7.7425 -3.0625 7.0625 Z " fill="#848484" transform="translate(211.0625,60.9375)"/>
<path d="M0 0 C2.88437779 1.29299694 4.87219421 2.65941363 7 5 C5.84826645 7.46800047 4.95216435 9.04783565 3 11 C0.04337034 10.77256695 -1.55033688 10.38764062 -3.8125 8.4375 C-4.204375 7.963125 -4.59625 7.48875 -5 7 C-3.70700306 4.11562221 -2.34058637 2.12780579 0 0 Z " fill="#2C3B45" transform="translate(74,41)"/>
<path d="M0 0 C2.1382143 1.14038096 3.47286109 2.00748681 4.875 4 C4.71761966 6.51808551 4.03727577 7.77590488 2.5625 9.8125 C0.875 11 0.875 11 -1.0625 11 C-3.92564093 9.61181046 -5.29315505 7.55149832 -7.125 5 C-2.7347561 0 -2.7347561 0 0 0 Z " fill="#31414A" transform="translate(25.125,41)"/>
<path d="M0 0 C1.65 0 3.3 0 5 0 C5 4.95 5 9.9 5 15 C3.35 15 1.7 15 0 15 C0 10.05 0 5.1 0 0 Z " fill="#000000" transform="translate(127,32)"/>
<path d="M0 0 C3.625 -0.1875 3.625 -0.1875 7 0 C7.02687279 1.81242052 7.04633715 3.62495233 7.0625 5.4375 C7.07410156 6.44683594 7.08570313 7.45617187 7.09765625 8.49609375 C7 11 7 11 6 12 C3.66702567 12.04092937 1.33294775 12.04241723 -1 12 C-1 10.68 -1 9.36 -1 8 C-1.20625 7.154375 -1.4125 6.30875 -1.625 5.4375 C-2 3 -2 3 0 0 Z M1 2 C1 3.65 1 5.3 1 7 C2.32 6.67 3.64 6.34 5 6 C4.67 4.68 4.34 3.36 4 2 C3.01 2 2.02 2 1 2 Z " fill="#838383" transform="translate(269,64)"/>
<path d="M0 0 C3.625 -0.1875 3.625 -0.1875 7 0 C7.02687279 1.81242052 7.04633715 3.62495233 7.0625 5.4375 C7.07410156 6.44683594 7.08570313 7.45617187 7.09765625 8.49609375 C7 11 7 11 6 12 C3.66702567 12.04092937 1.33294775 12.04241723 -1 12 C-1 10.68 -1 9.36 -1 8 C-1.20625 7.154375 -1.4125 6.30875 -1.625 5.4375 C-2 3 -2 3 0 0 Z M1 2 C1 3.65 1 5.3 1 7 C2.32 6.67 3.64 6.34 5 6 C4.67 4.68 4.34 3.36 4 2 C3.01 2 2.02 2 1 2 Z " fill="#838383" transform="translate(192,64)"/>
<path d="M0 0 C0.33 0.66 0.66 1.32 1 2 C1.99 2.33 2.98 2.66 4 3 C4.6875 5.0625 4.6875 5.0625 5 7 C5 5.35 5 3.7 5 2 C6.65 2 8.3 2 10 2 C10 3.98 10 5.96 10 8 C8.23186888 8.24915939 6.46025018 8.47366632 4.6875 8.6875 C3.70136719 8.81511719 2.71523438 8.94273438 1.69921875 9.07421875 C-1 9 -1 9 -2.85546875 7.51953125 C-3.23316406 7.01808594 -3.61085937 6.51664062 -4 6 C-2.84826645 3.53199953 -1.95216435 1.95216435 0 0 Z " fill="#C8D0D3" transform="translate(41,59)"/>
<path d="M0 0 C1.32 0.99 2.64 1.98 4 3 C3.34 4.32 2.68 5.64 2 7 C-2.95 6.67 -7.9 6.34 -13 6 C-13.33 6.66 -13.66 7.32 -14 8 C-13.42415568 5.61435923 -12.77772405 3.33317216 -12 1 C-11.34 1 -10.68 1 -10 1 C-10 2.32 -10 3.64 -10 5 C-9.34 3.68 -8.68 2.36 -8 1 C-7.360625 1.165 -6.72125 1.33 -6.0625 1.5 C-4.19173179 2.03926667 -4.19173179 2.03926667 -3 2 C-2.01 1.34 -1.02 0.68 0 0 Z " fill="#C4CACD" transform="translate(59,50)"/>
<path d="M0 0 C1.134375 0.020625 2.26875 0.04125 3.4375 0.0625 C3.1075 1.0525 2.7775 2.0425 2.4375 3.0625 C1.1175 3.0625 -0.2025 3.0625 -1.5625 3.0625 C0.4175 4.3825 2.3975 5.7025 4.4375 7.0625 C4.1075 8.7125 3.7775 10.3625 3.4375 12.0625 C0.7975 12.0625 -1.8425 12.0625 -4.5625 12.0625 C-4.2325 11.0725 -3.9025 10.0825 -3.5625 9.0625 C-1.9125 9.3925 -0.2625 9.7225 1.4375 10.0625 C0.04554085 7.2785817 -1.71825779 7.08351003 -4.5625 6.0625 C-4.605221 4.39638095 -4.60313832 2.72867115 -4.5625 1.0625 C-3.5625 0.0625 -3.5625 0.0625 0 0 Z " fill="#818181" transform="translate(144.5625,60.9375)"/>
<path d="M0 0 C3 1 3 1 4.140625 3.07421875 C4.50671875 3.93660156 4.8728125 4.79898438 5.25 5.6875 C7.692587 10.89387047 10.41771938 13.58575169 15 17 C14.34 17.99 13.68 18.98 13 20 C7.19041316 15.5166712 2.6748878 10.95728028 0 4 C0 2.68 0 1.36 0 0 Z " fill="#2D3E48" transform="translate(22,53)"/>
<path d="M0 0 C0.66 0 1.32 0 2 0 C2 3.96 2 7.92 2 12 C-1.375 12.1875 -1.375 12.1875 -5 12 C-7 9 -7 9 -6.6875 6.375 C-6 4 -6 4 -5 3 C-3.33382885 2.95936168 -1.66611905 2.957279 0 3 C0 2.01 0 1.02 0 0 Z M-3 5 C-3.33 6.65 -3.66 8.3 -4 10 C-2.68 9.67 -1.36 9.34 0 9 C-0.33 7.68 -0.66 6.36 -1 5 C-1.66 5 -2.32 5 -3 5 Z " fill="#848484" transform="translate(250,61)"/>
<path d="M0 0 C3 0.125 3 0.125 4 1.125 C4.14115161 3.79558851 4.04247107 6.44932238 4 9.125 C0.625 9.3125 0.625 9.3125 -3 9.125 C-5 6.125 -5 6.125 -4.6875 3.5 C-3.68897505 0.05055016 -3.71397355 0.1547489 0 0 Z M-1 2.125 C-1.33 2.785 -1.66 3.445 -2 4.125 C-0.68 3.795 0.64 3.465 2 3.125 C1.01 2.795 0.02 2.465 -1 2.125 Z " fill="#808080" transform="translate(129,63.875)"/>
<path d="M0 0 C2.31 0 4.62 0 7 0 C8.4783226 2.95664519 8.06032783 5.74229737 8 9 C5.36 9 2.72 9 0 9 C-1.15941038 5.52176885 -0.70820884 3.54104422 0 0 Z M2 5 C2 5.66 2 6.32 2 7 C2.99 7 3.98 7 5 7 C5 6.34 5 5.68 5 5 C4.01 5 3.02 5 2 5 Z " fill="#828282" transform="translate(160,64)"/>
<path d="M0 0 C1.134375 0.020625 2.26875 0.04125 3.4375 0.0625 C3.7675 1.0525 4.0975 2.0425 4.4375 3.0625 C2.4575 3.0625 0.4775 3.0625 -1.5625 3.0625 C-1.8925 4.7125 -2.2225 6.3625 -2.5625 8.0625 C0.90897842 8.81207157 0.90897842 8.81207157 4.4375 9.0625 C4.1075 10.0525 3.7775 11.0425 3.4375 12.0625 C0.125 12.375 0.125 12.375 -3.5625 12.0625 C-5.625 9.9375 -5.625 9.9375 -6.5625 7.0625 C-4.9527439 0.08689024 -4.9527439 0.08689024 0 0 Z " fill="#808080" transform="translate(228.5625,60.9375)"/>
<path d="M0 0 C0 0.33 0 0.66 0 1 C-11.385 0.505 -11.385 0.505 -23 0 C-22 -2 -22 -2 -20.3046875 -2.609375 C-13.19495344 -3.81441467 -6.12795223 -4.08530149 0 0 Z " fill="#384851" transform="translate(62,23)"/>
<path d="M0 0 C2.64 0 5.28 0 8 0 C8 0.66 8 1.32 8 2 C6.35 2 4.7 2 3 2 C3 2.66 3 3.32 3 4 C4.32 4 5.64 4 7 4 C7 4.99 7 5.98 7 7 C5.68 7 4.36 7 3 7 C3 8.65 3 10.3 3 12 C2.01 12 1.02 12 0 12 C0 8.04 0 4.08 0 0 Z " fill="#808080" transform="translate(108,61)"/>
<path d="M0 0 C3.68743234 -0.05850924 7.3747437 -0.09376673 11.0625 -0.125 C12.10083984 -0.14175781 13.13917969 -0.15851562 14.20898438 -0.17578125 C19.88711284 -0.21183286 24.64391054 0.07028834 30 2 C30 2.33 30 2.66 30 3 C27.02077407 3.02683987 24.04178705 3.04676037 21.0625 3.0625 C19.78729492 3.07506836 19.78729492 3.07506836 18.48632812 3.08789062 C17.67744141 3.09111328 16.86855469 3.09433594 16.03515625 3.09765625 C15.2862915 3.10289307 14.53742676 3.10812988 13.76586914 3.11352539 C12 3 12 3 11 2 C9.14712498 1.92773498 7.29166122 1.9161878 5.4375 1.9375 C4.42558594 1.94652344 3.41367187 1.95554687 2.37109375 1.96484375 C1.58863281 1.97644531 0.80617187 1.98804687 0 2 C0 1.34 0 0.68 0 0 Z " fill="#F7F8F8" transform="translate(33,23)"/>
<path d="M0 0 C3 0.125 3 0.125 4 1.125 C4.125 4.625 4.125 4.625 4 8.125 C3 9.125 3 9.125 0.0625 9.375 C-0.948125 9.2925 -1.95875 9.21 -3 9.125 C-5 6.125 -5 6.125 -4.6875 3.5 C-3.68897505 0.05055016 -3.71397355 0.1547489 0 0 Z M-1 2.125 C-1.33 3.445 -1.66 4.765 -2 6.125 C-0.68 6.125 0.64 6.125 2 6.125 C1.67 4.805 1.34 3.485 1 2.125 C0.34 2.125 -0.32 2.125 -1 2.125 Z " fill="#808080" transform="translate(238,63.875)"/>
<path d="M0 0 C0.66 0 1.32 0 2 0 C2 0.99 2 1.98 2 3 C2.804375 2.979375 3.60875 2.95875 4.4375 2.9375 C7 3 7 3 8 4 C8.14115161 6.67058851 8.04247107 9.32432238 8 12 C7.34 12 6.68 12 6 12 C5.87625 11.030625 5.7525 10.06125 5.625 9.0625 C5.315625 7.5465625 5.315625 7.5465625 5 6 C4.34 5.67 3.68 5.34 3 5 C2.67 7.31 2.34 9.62 2 12 C1.34 12 0.68 12 0 12 C0 8.04 0 4.08 0 0 Z " fill="#828282" transform="translate(150,61)"/>
<path d="M0 0 C5.22586581 1.38331742 8.03858796 4.67866461 11 9 C12.375 12.4375 12.375 12.4375 13 15 C8.74863623 13.4816558 7.3568719 10.71385875 5 7 C4.0994261 5.88266905 3.18285683 4.77802278 2.25 3.6875 C0 1 0 1 0 0 Z " fill="#2B3B45" transform="translate(63,24)"/>
<path d="M0 0 C2.33294775 -0.04241723 4.66702567 -0.04092937 7 0 C8 1 8 1 8.09765625 2.84765625 C8.04882812 5.92382812 8.04882812 5.92382812 8 9 C7.34 9 6.68 9 6 9 C6 6.69 6 4.38 6 2 C5.01 2.33 4.02 2.66 3 3 C2.67 4.98 2.34 6.96 2 9 C1.34 9 0.68 9 0 9 C0 6.03 0 3.06 0 0 Z " fill="#808080" transform="translate(258,64)"/>
<path d="M0 0 C2.33294775 -0.04241723 4.66702567 -0.04092937 7 0 C8 1 8 1 8.09765625 2.84765625 C8.04882812 5.92382812 8.04882812 5.92382812 8 9 C7.34 9 6.68 9 6 9 C6 6.69 6 4.38 6 2 C5.01 2.33 4.02 2.66 3 3 C2.67 4.98 2.34 6.96 2 9 C1.34 9 0.68 9 0 9 C0 6.03 0 3.06 0 0 Z " fill="#808080" transform="translate(181,64)"/>
<path d="M0 0 C2.31 0.33 4.62 0.66 7 1 C7.33 1.99 7.66 2.98 8 4 C9.62652316 5.70586575 11.29006566 7.3777546 13 9 C8.46546613 9 7.99000197 8.54615565 4.8125 5.625 C4.11769531 4.99851562 3.42289063 4.37203125 2.70703125 3.7265625 C1 2 1 2 0 0 Z " fill="#CED7DA" transform="translate(28,62)"/>
<path d="M0 0 C1.32 0 2.64 0 4 0 C4.66 0.66 5.32 1.32 6 2 C8.58354218 2.16687448 8.58354218 2.16687448 11 2 C11 2.66 11 3.32 11 4 C10.34 4 9.68 4 9 4 C9 4.66 9 5.32 9 6 C6.03 6 3.06 6 0 6 C0 4.02 0 2.04 0 0 Z " fill="#909BA2" transform="translate(52,61)"/>
<path d="M0 0 C3.3 0 6.6 0 10 0 C10 0.33 10 0.66 10 1 C7.03 1 4.06 1 1 1 C1 2.32 1 3.64 1 5 C3.97 5 6.94 5 10 5 C10 5.33 10 5.66 10 6 C8.3603125 6.4021875 8.3603125 6.4021875 6.6875 6.8125 C2.78348726 7.7601961 2.78348726 7.7601961 0 11 C0 7.37 0 3.74 0 0 Z " fill="#F8F9FA" transform="translate(36,28)"/>
<path d="M0 0 C2.31 0 4.62 0 7 0 C7.33 0.66 7.66 1.32 8 2 C7.01 2.33 6.02 2.66 5 3 C5 3.99 5 4.98 5 6 C4.34 6 3.68 6 3 6 C3 4.68 3 3.36 3 2 C2.34 2 1.68 2 1 2 C0.67 3.32 0.34 4.64 0 6 C-1.65 5.67 -3.3 5.34 -5 5 C-5 4.34 -5 3.68 -5 3 C-3.35 3 -1.7 3 0 3 C0 2.01 0 1.02 0 0 Z " fill="#5B676F" transform="translate(46,49)"/>
<path d="M0 0 C4.29 0 8.58 0 13 0 C13 0.66 13 1.32 13 2 C12.01 2.33 11.02 2.66 10 3 C9.67 4.65 9.34 6.3 9 8 C8.67 8 8.34 8 8 8 C8 6.02 8 4.04 8 2 C7.34 2 6.68 2 6 2 C5.67 2.66 5.34 3.32 5 4 C5 3.01 5 2.02 5 1 C3.35 1 1.7 1 0 1 C0 0.67 0 0.34 0 0 Z " fill="#556169" transform="translate(43,59)"/>
<path d="M0 0 C2.1875 1.4375 2.1875 1.4375 4 3 C3.34 4.32 2.68 5.64 2 7 C0.35 6.67 -1.3 6.34 -3 6 C-3 4.35 -3 2.7 -3 1 C-2.01 0.67 -1.02 0.34 0 0 Z " fill="#DFE4E6" transform="translate(59,50)"/>
<path d="M0 0 C5.28 1.32 10.56 2.64 16 4 C16 4.33 16 4.66 16 5 C3.98010109 5.5683665 3.98010109 5.5683665 0 2 C0 1.34 0 0.68 0 0 Z " fill="#1D2F3A" transform="translate(36,71)"/>
<path d="M0 0 C1.65 0 3.3 0 5 0 C5 1.98 5 3.96 5 6 C2.03 6 -0.94 6 -4 6 C-2.68 5.67 -1.36 5.34 0 5 C0 3.35 0 1.7 0 0 Z " fill="#9EA9AF" transform="translate(46,61)"/>
<path d="M0 0 C0 0.66 0 1.32 0 2 C-4.86051596 4.59227518 -9.65271133 4.18689553 -15 4 C-13.34548877 2.02201062 -12.38794196 1.09206594 -9.84375 0.48828125 C-8.68359375 0.40126953 -8.68359375 0.40126953 -7.5 0.3125 C-6.7265625 0.24675781 -5.953125 0.18101563 -5.15625 0.11328125 C-3.43945285 0.0230872 -1.71916474 0 0 0 Z " fill="#2B3D48" transform="translate(59,73)"/>
<path d="M0 0 C0.33 0.99 0.66 1.98 1 3 C0.01 3 -0.98 3 -2 3 C-2.33 5.31 -2.66 7.62 -3 10 C-3.66 10 -4.32 10 -5 10 C-5 7.03 -5 4.06 -5 1 C-3.35 0.67 -1.7 0.34 0 0 Z " fill="#808080" transform="translate(175,63)"/>
<path d="M0 0 C1 3 1 3 0.109375 5.04296875 C-0.33921875 5.75066406 -0.7878125 6.45835938 -1.25 7.1875 C-1.68828125 7.90292969 -2.1265625 8.61835937 -2.578125 9.35546875 C-3.04734375 9.89816406 -3.5165625 10.44085938 -4 11 C-4.99 11 -5.98 11 -7 11 C-5.5140084 6.40693504 -3.14985318 3.56430755 0 0 Z " fill="#23333D" transform="translate(30,28)"/>
<path d="M0 0 C0.99580078 0.24556641 0.99580078 0.24556641 2.01171875 0.49609375 C5.62883337 1.10603857 9.15860708 1.10795513 12.8125 1.0625 C13.50537109 1.05798828 14.19824219 1.05347656 14.91210938 1.04882812 C16.60811068 1.03713156 18.30406703 1.01919924 20 1 C20 1.33 20 1.66 20 2 C15.38 2 10.76 2 6 2 C6 2.99 6 3.98 6 5 C2.83884224 3.63016497 2.0072908 3.0109362 0 0 Z " fill="#223441" transform="translate(37,66)"/>
<path d="M0 0 C1.32 1.32 2.64 2.64 4 4 C3.01 4.99 2.02 5.98 1 7 C-0.32 6.34 -1.64 5.68 -3 5 C-1.125 1.125 -1.125 1.125 0 0 Z " fill="#D1D8DB" transform="translate(24,43)"/>
<path d="M0 0 C1.32 0.66 2.64 1.32 4 2 C3.67 3.32 3.34 4.64 3 6 C1.68 6 0.36 6 -1 6 C-1 2 -1 2 0 0 Z " fill="#CED5D7" transform="translate(74,43)"/>
<path d="M0 0 C0.66 0 1.32 0 2 0 C2 3.96 2 7.92 2 12 C1.34 12 0.68 12 0 12 C0 8.04 0 4.08 0 0 Z " fill="#808080" transform="translate(121,61)"/>
<path d="M0 0 C3.3 0 6.6 0 10 0 C9.67 0.66 9.34 1.32 9 2 C6.36 2 3.72 2 1 2 C0.67 2.66 0.34 3.32 0 4 C0 2.68 0 1.36 0 0 Z " fill="#3A4C56" transform="translate(34,24)"/>
<path d="M0 0 C0.9075 0.37125 1.815 0.7425 2.75 1.125 C5.88097015 2.30359299 5.88097015 2.30359299 8.375 1.125 C8.91125 0.75375 9.4475 0.3825 10 0 C9.25 1.9375 9.25 1.9375 8 4 C5.875 4.75 5.875 4.75 4 5 C2.68 3.35 1.36 1.7 0 0 Z " fill="#22333D" transform="translate(19,47)"/>
<path d="M0 0 C0.33 0.66 0.66 1.32 1 2 C1.66 2 2.32 2 3 2 C3 2.99 3 3.98 3 5 C0.69 5 -1.62 5 -4 5 C-2.68 3.35 -1.36 1.7 0 0 Z " fill="#EAEDEE" transform="translate(41,59)"/>
<path d="M0 0 C2.64 0 5.28 0 8 0 C8 0.99 8 1.98 8 3 C5.36 3 2.72 3 0 3 C0 2.01 0 1.02 0 0 Z " fill="#4AB0DF" transform="translate(38,30)"/>
<path d="M0 0 C1.65 0 3.3 0 5 0 C5 1.32 5 2.64 5 4 C3.35 4 1.7 4 0 4 C0 2.68 0 1.36 0 0 Z " fill="#000000" transform="translate(127,27)"/>
<path d="M0 0 C6.52307692 -0.36923077 6.52307692 -0.36923077 8.9375 1.5 C9.288125 1.995 9.63875 2.49 10 3 C4.58461538 3.36923077 4.58461538 3.36923077 1.625 1.5 C1.08875 1.005 0.5525 0.51 0 0 Z " fill="#283A43" transform="translate(52,21)"/>
<path d="M0 0 C0.66 0 1.32 0 2 0 C2 2.97 2 5.94 2 9 C1.34 9 0.68 9 0 9 C0 6.03 0 3.06 0 0 Z " fill="#808080" transform="translate(254,64)"/>
<path d="M0 0 C0.66 0 1.32 0 2 0 C2 2.97 2 5.94 2 9 C1.34 9 0.68 9 0 9 C0 6.03 0 3.06 0 0 Z " fill="#808080" transform="translate(177,64)"/>
<path d="M0 0 C0.66 0 1.32 0 2 0 C2 2.97 2 5.94 2 9 C1.34 9 0.68 9 0 9 C0 6.03 0 3.06 0 0 Z " fill="#808080" transform="translate(117,64)"/>
<path d="M0 0 C2.31 0 4.62 0 7 0 C6.2884375 0.6496875 6.2884375 0.6496875 5.5625 1.3125 C3.76313043 3.02309613 3.76313043 3.02309613 3 6 C1 3 1 3 0 0 Z " fill="#47555E" transform="translate(53,49)"/>
<path d="M0 0 C1.2077558 3.62326739 0.54311128 4.64146369 -1 8 C-1.66 7.67 -2.32 7.34 -3 7 C-2.25 2.25 -2.25 2.25 0 0 Z " fill="#3F4C55" transform="translate(38,59)"/>
<path d="M0 0 C0.66 0.33 1.32 0.66 2 1 C0.63016497 4.16115776 0.0109362 4.9927092 -3 7 C-3 3.48283697 -2.17554415 2.62878252 0 0 Z " fill="#3B4A53" transform="translate(79,45)"/>
<path d="M0 0 C0.66 0 1.32 0 2 0 C2 0.66 2 1.32 2 2 C1.34 2 0.68 2 0 2 C0 1.34 0 0.68 0 0 Z " fill="#808080" transform="translate(254,61)"/>
<path d="M0 0 C0.66 0 1.32 0 2 0 C2 0.66 2 1.32 2 2 C1.34 2 0.68 2 0 2 C0 1.34 0 0.68 0 0 Z " fill="#808080" transform="translate(177,61)"/>
<path d="M0 0 C0.66 0 1.32 0 2 0 C2 0.66 2 1.32 2 2 C1.34 2 0.68 2 0 2 C0 1.34 0 0.68 0 0 Z " fill="#808080" transform="translate(117,61)"/>
</svg>
