<?xml version="1.0" encoding="UTF-8"?>
<svg version="1.1" xmlns="http://www.w3.org/2000/svg" width="507" height="104">
<path d="M0,0 L80,0 L80,80 L0,80 Z " fill="#657E8C" transform="translate(10,9)"/>
<path d="M0,0 L16,0 L16,80 L-21,80 L-21,79 L-20,79 L-20,77 L-21,77 L-21,76 L-20,76 L-20,74 L-22,74 L-22,72 L-17,72 L-17,71 L-14,71 L-14,70 L-17,70 L-17,69 L-18,69 L-18,68 L-16,68 L-16,67 L-13,67 L-13,66 L-12,66 L-12,64 L-10,64 L-10,63 L-8,63 L-8,62 L-7,62 L-7,61 L-6,61 L-6,60 L-5,60 L-5,59 L-4,59 L-4,58 L-3,58 L-3,57 L-2,57 L-2,56 L-1,56 L-1,54 L0,54 L0,53 L1,53 L1,50 L2,50 L2,47 L3,47 L3,45 L2,45 L2,44 L4,44 L4,43 L5,43 L5,41 L4,41 L4,42 L3,42 L3,43 L-1,43 L-1,42 L-2,42 L-2,41 L-3,41 L-3,40 L-4,40 L-4,39 L-5,39 L-5,37 L-4,37 L-4,36 L-3,36 L-3,35 L-2,35 L-2,34 L-1,34 L-1,33 L0,33 L0,32 L2,32 L2,33 L3,33 L3,34 L4,34 L4,35 L5,35 L5,36 L6,36 L6,37 L7,37 L7,39 L8,39 L8,36 L7,36 L7,35 L6,35 L6,34 L5,34 L5,33 L4,33 L4,32 L3,32 L3,31 L2,31 L2,30 L0,30 L0,29 L-1,29 L-1,28 L-2,28 L-2,26 L-3,26 L-3,24 L-4,24 L-4,23 L-5,23 L-5,22 L-6,22 L-6,21 L-7,21 L-7,20 L-8,20 L-8,19 L-9,19 L-9,17 L-10,17 L-10,16 L-15,16 L-15,15 L-18,15 L-18,14 L-35,14 L-35,13 L-34,13 L-34,12 L-30,12 L-30,11 L-19,11 L-19,12 L-16,12 L-16,13 L-13,13 L-13,14 L-12,14 L-12,12 L-11,12 L-11,11 L-10,11 L-10,10 L-9,10 L-9,9 L-8,9 L-8,8 L-7,8 L-7,6 L-10,6 L-10,4 L-8,4 L-8,3 L-6,3 L-6,2 L0,2 Z " fill="#67808E" transform="translate(74,9)"/>
<path d="M0,0 L23,0 L23,1 L26,1 L26,2 L31,2 L31,3 L32,3 L32,5 L33,5 L33,6 L34,6 L34,7 L35,7 L35,8 L36,8 L36,9 L37,9 L37,10 L38,10 L38,12 L39,12 L39,14 L40,14 L40,15 L41,15 L41,16 L43,16 L43,17 L44,17 L44,18 L45,18 L45,19 L46,19 L46,20 L47,20 L47,21 L48,21 L48,22 L49,22 L49,25 L48,25 L48,23 L47,23 L47,22 L46,22 L46,21 L45,21 L45,20 L44,20 L44,19 L43,19 L43,18 L41,18 L41,19 L40,19 L40,20 L39,20 L39,21 L38,21 L38,22 L37,22 L37,23 L36,23 L36,25 L37,25 L37,26 L38,26 L38,27 L39,27 L39,28 L40,28 L40,29 L44,29 L44,28 L45,28 L45,27 L46,27 L46,29 L45,29 L45,30 L43,30 L43,31 L41,31 L41,34 L40,34 L40,37 L39,37 L39,39 L35,39 L35,40 L33,40 L33,41 L32,41 L32,42 L30,42 L30,40 L25,40 L25,41 L24,41 L24,40 L23,40 L23,36 L10,36 L10,34 L8,34 L8,35 L7,35 L7,36 L5,36 L5,37 L4,37 L4,38 L3,38 L3,39 L2,39 L2,40 L0,40 L0,39 L-5,39 L-5,38 L-6,38 L-6,36 L-7,36 L-7,33 L-8,33 L-8,31 L-10,31 L-10,30 L-11,30 L-11,29 L-12,29 L-12,28 L-13,28 L-13,27 L-14,27 L-14,26 L-15,26 L-15,25 L-16,25 L-16,22 L-15,22 L-15,21 L-14,21 L-14,20 L-13,20 L-13,19 L-12,19 L-12,18 L-11,18 L-11,17 L-10,17 L-10,16 L-7,16 L-7,14 L-6,14 L-6,12 L-5,12 L-5,10 L-4,10 L-4,9 L-3,9 L-3,8 L-2,8 L-2,7 L-1,7 L-1,2 L0,2 Z " fill="#ECEFF0" transform="translate(33,23)"/>
<path d="M0,0 L10,0 L10,1 L11,1 L11,2 L29,2 L29,3 L30,3 L30,10 L34,10 L34,11 L35,11 L35,13 L34,13 L34,14 L33,14 L33,16 L32,16 L32,18 L31,18 L31,20 L30,20 L30,21 L29,21 L29,22 L28,22 L28,23 L26,23 L26,24 L27,24 L27,25 L28,25 L28,26 L29,26 L29,27 L30,27 L30,28 L31,28 L31,31 L30,31 L30,32 L29,32 L29,33 L28,33 L28,34 L27,34 L27,35 L26,35 L26,36 L23,36 L23,34 L12,34 L12,32 L20,32 L20,30 L21,30 L21,28 L20,28 L20,27 L17,27 L17,28 L16,28 L16,30 L17,30 L17,31 L15,31 L15,27 L13,27 L13,31 L12,31 L12,30 L7,30 L7,28 L12,28 L12,25 L23,25 L23,23 L0,23 L0,22 L-1,22 L-1,1 L0,1 Z " fill="#384D5A" transform="translate(34,24)"/>
<path d="M0,0 L16,0 L16,38 L15,38 L15,39 L14,39 L14,38 L13,38 L13,37 L11,37 L11,35 L10,35 L10,31 L9,31 L9,32 L5,32 L5,31 L2,31 L2,30 L0,30 L0,29 L-1,29 L-1,28 L-2,28 L-2,26 L-3,26 L-3,24 L-4,24 L-4,23 L-5,23 L-5,22 L-6,22 L-6,21 L-7,21 L-7,20 L-8,20 L-8,19 L-9,19 L-9,17 L-10,17 L-10,16 L-15,16 L-15,15 L-18,15 L-18,14 L-35,14 L-35,13 L-34,13 L-34,12 L-30,12 L-30,11 L-19,11 L-19,12 L-16,12 L-16,13 L-13,13 L-13,14 L-12,14 L-12,12 L-11,12 L-11,11 L-10,11 L-10,10 L-9,10 L-9,9 L-8,9 L-8,8 L-7,8 L-7,6 L-10,6 L-10,4 L-8,4 L-8,3 L-6,3 L-6,2 L0,2 Z " fill="#677F8B" transform="translate(74,9)"/>
<path d="M0,0 L2,0 L2,2 L15,2 L15,6 L16,6 L16,7 L17,7 L17,6 L22,6 L22,8 L24,8 L24,7 L25,7 L25,6 L27,6 L27,5 L30,5 L30,6 L29,6 L29,8 L28,8 L28,9 L27,9 L27,10 L26,10 L26,11 L25,11 L25,12 L23,12 L23,13 L22,13 L22,14 L20,14 L20,15 L18,15 L18,16 L15,16 L15,17 L2,17 L2,16 L-1,16 L-1,15 L-3,15 L-3,14 L-5,14 L-5,13 L-6,13 L-6,12 L-7,12 L-7,11 L-9,11 L-9,10 L-10,10 L-10,8 L-11,8 L-11,7 L-12,7 L-12,6 L-13,6 L-13,5 L-8,5 L-8,6 L-6,6 L-6,5 L-5,5 L-5,4 L-4,4 L-4,3 L-3,3 L-3,2 L-1,2 L-1,1 L0,1 Z " fill="#C9D2D4" transform="translate(41,57)"/>
<path d="M0,0 L23,0 L23,1 L26,1 L26,2 L31,2 L31,3 L32,3 L32,5 L33,5 L33,6 L34,6 L34,7 L35,7 L35,8 L36,8 L36,9 L37,9 L37,10 L38,10 L38,12 L39,12 L39,14 L40,14 L40,15 L41,15 L41,16 L43,16 L43,17 L44,17 L44,18 L45,18 L45,19 L46,19 L46,20 L47,20 L47,21 L48,21 L48,22 L49,22 L49,25 L48,25 L48,23 L47,23 L47,22 L46,22 L46,21 L45,21 L45,20 L44,20 L44,19 L43,19 L43,18 L41,18 L41,19 L40,19 L40,20 L39,20 L39,21 L38,21 L38,22 L37,22 L37,23 L36,23 L36,25 L37,25 L37,26 L38,26 L38,27 L39,27 L39,28 L40,28 L40,29 L44,29 L44,28 L45,28 L45,27 L46,27 L46,29 L45,29 L45,30 L43,30 L43,31 L41,31 L41,34 L40,34 L40,37 L39,37 L39,39 L35,39 L35,40 L33,40 L33,41 L32,41 L32,42 L30,42 L30,40 L26,40 L26,38 L25,38 L25,37 L27,37 L27,36 L28,36 L28,35 L29,35 L29,34 L30,34 L30,33 L31,33 L31,32 L32,32 L32,29 L31,29 L31,28 L30,28 L30,27 L29,27 L29,26 L28,26 L28,25 L27,25 L27,24 L29,24 L29,23 L30,23 L30,22 L31,22 L31,21 L32,21 L32,19 L33,19 L33,17 L34,17 L34,15 L35,15 L35,14 L36,14 L36,12 L35,12 L35,11 L31,11 L31,4 L30,4 L30,3 L12,3 L12,2 L11,2 L11,1 L1,1 L1,2 L0,2 Z " fill="#EEF0F1" transform="translate(33,23)"/>
<path d="M0,0 L32,0 L32,2 L26,2 L26,3 L24,3 L24,4 L22,4 L22,6 L25,6 L25,8 L24,8 L24,9 L23,9 L23,10 L22,10 L22,11 L21,11 L21,12 L20,12 L20,14 L19,14 L19,13 L16,13 L16,12 L13,12 L13,11 L2,11 L2,12 L-2,12 L-2,13 L-3,13 L-3,14 L-4,14 L-4,11 L-3,11 L-3,10 L-2,10 L-2,9 L-1,9 L-1,8 L0,8 L0,7 L-1,7 L-1,4 L-2,4 L-2,3 L-1,3 L-1,1 L0,1 Z M0,6 L0,7 L1,7 L1,6 Z " fill="#667E8B" transform="translate(42,9)"/>
<path d="M0,0 L25,0 L25,2 L24,2 L24,4 L23,4 L23,6 L22,6 L22,7 L21,7 L21,9 L-5,9 L-5,8 L-4,8 L-4,6 L-3,6 L-3,4 L-2,4 L-2,2 L-1,2 L-1,1 L0,1 Z " fill="#5CB7E8" transform="translate(41,36)"/>
<path d="M0,0 L5,0 L5,20 L0,20 L0,19 L-1,19 L-1,20 L-8,20 L-8,19 L-9,19 L-9,18 L-10,18 L-10,17 L-11,17 L-11,8 L-10,8 L-10,7 L-9,7 L-9,6 L-8,6 L-8,5 L-1,5 L-1,6 L0,6 Z M-4,9 L-4,10 L-5,10 L-5,15 L-4,15 L-4,16 L-1,16 L-1,14 L0,14 L0,11 L-1,11 L-1,9 Z " fill="#000000" transform="translate(246,27)"/>
<path d="M0,0 L14,0 L14,4 L6,4 L6,8 L14,8 L14,12 L6,12 L6,16 L15,16 L15,20 L0,20 Z " fill="#000000" transform="translate(109,27)"/>
<path d="M0,0 L9,0 L9,2 L27,2 L27,8 L5,8 L5,9 L4,9 L4,10 L3,10 L3,12 L2,12 L2,14 L1,14 L1,16 L0,16 Z " fill="#A9B9C0" transform="translate(35,26)"/>
<path d="M0,0 L11,0 L11,1 L12,1 L12,6 L11,6 L11,5 L8,5 L8,4 L4,4 L4,5 L3,5 L3,6 L2,6 L2,7 L1,7 L1,13 L2,13 L2,14 L3,14 L3,15 L4,15 L4,16 L8,16 L8,15 L11,15 L11,14 L12,14 L12,19 L11,19 L11,20 L0,20 L0,19 L-1,19 L-1,18 L-3,18 L-3,16 L-4,16 L-4,14 L-5,14 L-5,6 L-4,6 L-4,4 L-3,4 L-3,2 L-1,2 L-1,1 L0,1 Z " fill="#000000" transform="translate(174,27)"/>
<path d="M0,0 L10,0 L10,1 L11,1 L11,2 L12,2 L12,4 L13,4 L13,9 L3,9 L3,11 L10,11 L10,10 L13,10 L13,14 L12,14 L12,15 L0,15 L0,14 L-1,14 L-1,13 L-2,13 L-2,12 L-3,12 L-3,3 L-2,3 L-2,2 L-1,2 L-1,1 L0,1 Z M3,4 L3,6 L7,6 L7,4 Z " fill="#000000" transform="translate(154,32)"/>
<path d="M0,0 L10,0 L10,1 L11,1 L11,2 L12,2 L12,3 L13,3 L13,5 L14,5 L14,10 L13,10 L13,12 L12,12 L12,13 L11,13 L11,14 L10,14 L10,15 L0,15 L0,14 L-1,14 L-1,13 L-2,13 L-2,12 L-3,12 L-3,3 L-2,3 L-2,2 L-1,2 L-1,1 L0,1 Z M4,4 L4,5 L3,5 L3,10 L4,10 L4,11 L7,11 L7,9 L8,9 L8,6 L7,6 L7,4 Z " fill="#000000" transform="translate(201,32)"/>
<path d="M0,0 L10,0 L10,1 L11,1 L11,2 L29,2 L29,3 L30,3 L30,10 L33,10 L33,11 L8,11 L8,12 L7,12 L7,13 L6,13 L6,14 L5,14 L5,16 L4,16 L4,18 L3,18 L3,20 L2,20 L2,22 L23,22 L23,23 L0,23 L0,22 L-1,22 L-1,1 L0,1 Z M1,2 L1,18 L2,18 L2,16 L3,16 L3,14 L4,14 L4,12 L5,12 L5,11 L6,11 L6,10 L28,10 L28,4 L10,4 L10,2 Z " fill="#1E2E38" transform="translate(34,24)"/>
<path d="M0,0 L1,0 L1,1 L3,1 L3,3 L4,3 L4,6 L5,6 L5,8 L6,8 L6,10 L7,10 L7,11 L8,11 L8,12 L9,12 L9,14 L10,14 L10,15 L12,15 L12,16 L13,16 L13,17 L14,17 L14,18 L16,18 L16,19 L18,19 L18,20 L21,20 L21,21 L34,21 L34,20 L37,20 L37,19 L39,19 L39,18 L41,18 L41,17 L42,17 L42,16 L44,16 L44,15 L45,15 L45,14 L46,14 L46,13 L47,13 L47,12 L48,12 L48,10 L49,10 L49,9 L50,9 L50,7 L51,7 L51,4 L52,4 L52,1 L55,1 L55,3 L54,3 L54,6 L53,6 L53,9 L52,9 L52,10 L51,10 L51,12 L50,12 L50,13 L49,13 L49,14 L48,14 L48,15 L47,15 L47,16 L46,16 L46,17 L45,17 L45,18 L44,18 L44,19 L42,19 L42,20 L40,20 L40,21 L38,21 L38,22 L35,22 L35,23 L32,23 L32,24 L23,24 L23,23 L19,23 L19,22 L17,22 L17,21 L15,21 L15,20 L13,20 L13,19 L12,19 L12,18 L10,18 L10,17 L9,17 L9,16 L8,16 L8,15 L7,15 L7,14 L6,14 L6,13 L5,13 L5,11 L4,11 L4,10 L3,10 L3,8 L2,8 L2,5 L1,5 L1,3 L0,3 Z " fill="#283843" transform="translate(22,53)"/>
<path d="M0,0 L2,0 L2,2 L15,2 L15,4 L11,4 L11,5 L12,5 L12,8 L11,8 L11,10 L16,10 L16,11 L2,11 L2,14 L0,14 L0,13 L-1,13 L-1,12 L-2,12 L-2,11 L-3,11 L-3,10 L-5,10 L-5,9 L-6,9 L-6,5 L-5,5 L-5,4 L-4,4 L-4,3 L-3,3 L-3,2 L-1,2 L-1,1 L0,1 Z " fill="#293841" transform="translate(41,57)"/>
<path d="M0,0 L5,0 L5,10 L6,10 L6,11 L8,11 L8,10 L9,10 L9,8 L10,8 L10,0 L15,0 L15,15 L10,15 L10,14 L9,14 L9,15 L2,15 L2,14 L1,14 L1,13 L0,13 Z " fill="#000000" transform="translate(217,32)"/>
<path d="M0,0 L14,0 L14,4 L13,4 L13,5 L12,5 L12,6 L11,6 L11,7 L10,7 L10,8 L9,8 L9,9 L8,9 L8,10 L7,10 L7,11 L14,11 L14,15 L0,15 L0,10 L1,10 L1,9 L2,9 L2,8 L3,8 L3,7 L4,7 L4,6 L5,6 L5,5 L6,5 L6,4 L0,4 Z " fill="#000000" transform="translate(135,32)"/>
<path d="M0,0 L4,0 L4,2 L5,2 L5,3 L6,3 L6,2 L11,2 L11,4 L13,4 L13,3 L14,3 L14,2 L16,2 L16,1 L19,1 L19,2 L18,2 L18,4 L17,4 L17,5 L16,5 L16,6 L15,6 L15,7 L14,7 L14,8 L12,8 L12,9 L11,9 L11,10 L9,10 L9,11 L8,11 L8,9 L9,9 L9,8 L-8,8 L-8,9 L-9,9 L-9,7 L5,7 L5,6 L0,6 L0,4 L1,4 L1,1 L0,1 Z " fill="#BEC8CC" transform="translate(52,61)"/>
<path d="M0,0 L1,0 L1,1 L26,1 L26,2 L25,2 L25,3 L24,3 L24,5 L-2,5 L-2,4 L-1,4 L-1,2 L0,2 Z " fill="#2B83B6" transform="translate(38,40)"/>
<path d="M0,0 L5,0 L5,20 L0,20 Z " fill="#000000" transform="translate(190,27)"/>
<path d="M0,0 L1,0 L1,21 L-2,21 L-2,20 L-3,20 L-3,19 L-4,19 L-4,18 L-5,18 L-5,17 L-6,17 L-6,16 L-7,16 L-7,15 L-6,15 L-6,12 L-5,12 L-5,10 L-4,10 L-4,8 L-3,8 L-3,7 L-2,7 L-2,6 L-1,6 L-1,5 L0,5 Z " fill="#F9FAFB" transform="translate(32,25)"/>
<path d="M0,0 L6,0 L6,2 L2,2 L2,4 L3,4 L3,5 L4,5 L4,6 L5,6 L5,7 L6,7 L6,5 L9,5 L9,8 L8,8 L8,11 L9,11 L9,12 L-1,12 L-1,11 L-2,11 L-2,5 L-1,5 L-1,1 L0,1 Z M0,7 L0,9 L1,9 L1,10 L4,10 L4,9 L3,9 L3,8 L2,8 L2,7 Z " fill="#848484" transform="translate(208,61)"/>
<path d="M0,0 L2,0 L2,1 L3,1 L3,2 L4,2 L4,3 L5,3 L5,4 L6,4 L6,5 L7,5 L7,7 L6,7 L6,8 L5,8 L5,9 L4,9 L4,10 L3,10 L3,11 L-1,11 L-1,10 L-2,10 L-2,9 L-3,9 L-3,8 L-4,8 L-4,7 L-5,7 L-5,5 L-4,5 L-4,4 L-3,4 L-3,3 L-2,3 L-2,2 L-1,2 L-1,1 L0,1 Z " fill="#2F3F48" transform="translate(74,41)"/>
<path d="M0,0 L3,0 L3,1 L4,1 L4,2 L5,2 L5,3 L6,3 L6,4 L7,4 L7,7 L6,7 L6,8 L5,8 L5,9 L4,9 L4,10 L3,10 L3,11 L0,11 L0,10 L-1,10 L-1,9 L-2,9 L-2,8 L-3,8 L-3,7 L-4,7 L-4,6 L-5,6 L-5,5 L-4,5 L-4,4 L-3,4 L-3,3 L-2,3 L-2,2 L-1,2 L-1,1 L0,1 Z " fill="#25363F" transform="translate(23,41)"/>
<path d="M0,0 L2,0 L2,2 L3,2 L3,3 L4,3 L4,4 L5,4 L5,6 L4,6 L4,7 L2,7 L2,8 L1,8 L1,7 L0,7 L0,9 L2,9 L2,11 L-1,11 L-1,9 L-12,9 L-12,7 L-4,7 L-4,5 L-3,5 L-3,3 L-4,3 L-4,2 L-3,2 L-3,1 L0,1 Z " fill="#46545D" transform="translate(58,49)"/>
<path d="M0,0 L5,0 L5,15 L0,15 Z " fill="#000000" transform="translate(127,32)"/>
<path d="M0,0 L10,0 L10,1 L11,1 L11,2 L29,2 L29,3 L30,3 L30,9 L29,9 L29,10 L28,10 L28,4 L10,4 L10,2 L1,2 L1,4 L0,4 L0,3 L-1,3 L-1,1 L0,1 Z " fill="#2C3A43" transform="translate(34,24)"/>
<path d="M0,0 L1,0 L1,2 L3,2 L3,3 L4,3 L4,6 L3,6 L3,7 L5,7 L5,5 L6,5 L6,4 L5,4 L5,2 L7,2 L7,4 L8,4 L8,2 L10,2 L10,8 L1,8 L1,9 L-1,9 L-1,8 L-2,8 L-2,7 L-3,7 L-3,6 L-4,6 L-4,4 L-3,4 L-3,3 L-2,3 L-2,2 L-1,2 L-1,1 L0,1 Z " fill="#C8D0D3" transform="translate(41,59)"/>
<path d="M0,0 L7,0 L7,11 L6,11 L6,12 L-1,12 L-1,10 L4,10 L4,9 L0,9 L0,8 L-1,8 L-1,6 L-2,6 L-2,3 L-1,3 L-1,1 L0,1 Z M1,2 L1,7 L4,7 L4,6 L5,6 L5,3 L4,3 L4,2 Z " fill="#838383" transform="translate(269,64)"/>
<path d="M0,0 L7,0 L7,11 L6,11 L6,12 L-1,12 L-1,10 L4,10 L4,9 L0,9 L0,8 L-1,8 L-1,6 L-2,6 L-2,3 L-1,3 L-1,1 L0,1 Z M1,2 L1,7 L4,7 L4,6 L5,6 L5,3 L4,3 L4,2 Z " fill="#838383" transform="translate(192,64)"/>
<path d="M0,0 L17,0 L17,1 L16,1 L16,3 L15,3 L15,4 L12,4 L12,5 L4,5 L4,4 L5,4 L5,3 L1,3 L1,2 L-1,2 L-1,1 L0,1 Z " fill="#DAE2E5" transform="translate(44,69)"/>
<path d="M0,0 L7,0 L7,3 L6,3 L6,2 L2,2 L2,3 L1,3 L1,4 L3,4 L3,5 L6,5 L6,6 L7,6 L7,7 L8,7 L8,10 L7,10 L7,12 L-1,12 L-1,9 L0,9 L0,10 L5,10 L5,8 L4,8 L4,7 L1,7 L1,6 L-1,6 L-1,1 L0,1 Z " fill="#818181" transform="translate(141,61)"/>
<path d="M0,0 L2,0 L2,12 L-5,12 L-5,11 L-6,11 L-6,9 L-7,9 L-7,6 L-6,6 L-6,4 L-5,4 L-5,3 L0,3 Z M-3,5 L-3,6 L-4,6 L-4,10 L-1,10 L-1,9 L0,9 L0,6 L-1,6 L-1,5 Z " fill="#848484" transform="translate(250,61)"/>
<path d="M0,0 L6,0 L6,1 L7,1 L7,6 L2,6 L2,7 L7,7 L7,9 L0,9 L0,8 L-1,8 L-1,6 L-2,6 L-2,3 L-1,3 L-1,1 L0,1 Z M2,2 L2,3 L1,3 L1,4 L5,4 L5,3 L4,3 L4,2 Z " fill="#808080" transform="translate(126,64)"/>
<path d="M0,0 L7,0 L7,2 L8,2 L8,9 L0,9 L0,7 L-1,7 L-1,6 L0,6 L0,3 L5,3 L5,2 L0,2 Z M2,5 L2,7 L5,7 L5,5 Z " fill="#828282" transform="translate(160,64)"/>
<path d="M0,0 L7,0 L7,1 L8,1 L8,3 L6,3 L6,2 L2,2 L2,3 L1,3 L1,4 L0,4 L0,8 L1,8 L1,9 L2,9 L2,10 L6,10 L6,9 L8,9 L8,11 L7,11 L7,12 L0,12 L0,11 L-1,11 L-1,10 L-2,10 L-2,7 L-3,7 L-3,5 L-2,5 L-2,2 L-1,2 L-1,1 L0,1 Z " fill="#808080" transform="translate(225,61)"/>
<path d="M0,0 L8,0 L8,2 L3,2 L3,4 L7,4 L7,7 L3,7 L3,12 L0,12 Z " fill="#808080" transform="translate(108,61)"/>
<path d="M0,0 L23,0 L23,1 L26,1 L26,2 L30,2 L30,3 L12,3 L12,2 L11,2 L11,1 L1,1 L1,2 L0,2 Z " fill="#F7F8F8" transform="translate(33,23)"/>
<path d="M0,0 L11,0 L11,1 L14,1 L14,2 L17,2 L17,3 L18,3 L18,4 L12,4 L12,3 L-5,3 L-5,2 L-4,2 L-4,1 L0,1 Z " fill="#3C4C55" transform="translate(44,20)"/>
<path d="M0,0 L6,0 L6,1 L7,1 L7,8 L6,8 L6,9 L0,9 L0,8 L-1,8 L-1,6 L-2,6 L-2,3 L-1,3 L-1,1 L0,1 Z M2,2 L2,3 L1,3 L1,6 L2,6 L2,7 L4,7 L4,6 L5,6 L5,3 L4,3 L4,2 Z " fill="#808080" transform="translate(235,64)"/>
<path d="M0,0 L2,0 L2,3 L7,3 L7,4 L8,4 L8,12 L6,12 L6,6 L5,6 L5,5 L3,5 L3,7 L2,7 L2,12 L0,12 Z " fill="#828282" transform="translate(150,61)"/>
<path d="M0,0 L25,0 L25,1 L24,1 L24,2 L23,2 L23,3 L19,3 L19,2 L1,2 L1,1 L0,1 Z " fill="#318BC1" transform="translate(39,41)"/>
<path d="M0,0 L8,0 L8,19 L7,19 L7,18 L6,18 L6,12 L5,12 L5,11 L6,11 L6,10 L5,10 L5,9 L3,9 L3,7 L6,7 L6,5 L7,5 L7,4 L6,4 L6,2 L5,2 L5,1 L0,1 Z " fill="#67808F" transform="translate(82,9)"/>
<path d="M0,0 L2,0 L2,1 L3,1 L3,2 L4,2 L4,3 L6,3 L6,4 L7,4 L7,5 L8,5 L8,6 L9,6 L9,8 L10,8 L10,9 L11,9 L11,11 L12,11 L12,13 L13,13 L13,15 L11,15 L11,14 L10,14 L10,13 L9,13 L9,11 L8,11 L8,9 L7,9 L7,8 L6,8 L6,7 L5,7 L5,6 L4,6 L4,5 L3,5 L3,4 L2,4 L2,2 L1,2 L1,1 L0,1 Z " fill="#2B3B44" transform="translate(63,24)"/>
<path d="M0,0 L7,0 L7,1 L8,1 L8,9 L6,9 L6,2 L3,2 L3,3 L2,3 L2,9 L0,9 Z " fill="#808080" transform="translate(258,64)"/>
<path d="M0,0 L7,0 L7,1 L8,1 L8,9 L6,9 L6,2 L3,2 L3,3 L2,3 L2,9 L0,9 Z " fill="#808080" transform="translate(181,64)"/>
<path d="M0,0 L3,0 L3,1 L5,1 L5,2 L7,2 L7,3 L10,3 L10,4 L14,4 L14,5 L19,5 L19,6 L8,6 L8,5 L6,5 L6,4 L4,4 L4,3 L2,3 L2,2 L1,2 L1,1 L0,1 Z " fill="#1D2E39" transform="translate(33,70)"/>
<path d="M0,0 L2,0 L2,4 L4,4 L4,3 L3,3 L3,1 L4,1 L4,0 L7,0 L7,1 L8,1 L8,3 L7,3 L7,5 L-1,5 L-1,7 L-2,7 L-2,3 L-1,3 L-1,4 L0,4 Z " fill="#C9D0D2" transform="translate(47,51)"/>
<path d="M0,0 L1,0 L1,20 L0,20 L0,10 L-1,10 L-1,9 L-2,9 L-2,10 L-3,10 L-3,11 L-4,11 L-4,12 L-5,12 L-5,10 L-4,10 L-4,8 L-3,8 L-3,7 L-2,7 L-2,6 L-1,6 L-1,5 L0,5 Z " fill="#E9ECED" transform="translate(32,25)"/>
<path d="M0,0 L7,0 L7,1 L8,1 L8,2 L5,2 L5,3 L4,3 L4,5 L5,5 L5,6 L3,6 L3,2 L1,2 L1,6 L0,6 L0,5 L-5,5 L-5,3 L0,3 Z " fill="#5B676F" transform="translate(46,49)"/>
<path d="M0,0 L13,0 L13,2 L9,2 L9,3 L10,3 L10,6 L9,6 L9,8 L8,8 L8,2 L6,2 L6,4 L5,4 L5,1 L0,1 Z " fill="#556169" transform="translate(43,59)"/>
<path d="M0,0 L4,0 L4,1 L5,1 L5,2 L6,2 L6,3 L3,3 L3,4 L-5,4 L-5,3 L-4,3 L-4,1 L0,1 Z " fill="#D4DDDF" transform="translate(53,70)"/>
<path d="M0,0 L2,0 L2,2 L3,2 L3,0 L5,0 L5,6 L-4,6 L-4,5 L0,5 L0,3 L1,3 L1,2 L0,2 Z " fill="#9EA9AF" transform="translate(46,61)"/>
<path d="M0,0 L5,0 L5,1 L7,1 L7,4 L8,4 L8,7 L6,7 L6,6 L4,6 L4,5 L3,5 L3,3 L2,3 L2,2 L1,2 L1,1 L0,1 Z " fill="#CFD7DA" transform="translate(28,62)"/>
<path d="M0,0 L1,0 L1,1 L2,1 L2,2 L3,2 L3,3 L4,3 L4,5 L3,5 L3,6 L1,6 L1,7 L0,7 L0,6 L-3,6 L-3,4 L-2,4 L-2,2 L-3,2 L-3,1 L0,1 Z " fill="#E3E8EA" transform="translate(59,50)"/>
<path d="M0,0 L1,0 L1,1 L3,1 L3,2 L4,2 L4,3 L5,3 L5,4 L6,4 L6,5 L7,5 L7,8 L6,8 L6,9 L5,9 L5,10 L4,10 L4,11 L3,11 L3,12 L2,12 L2,11 L0,11 L0,9 L1,9 L1,10 L2,10 L2,9 L4,9 L4,8 L5,8 L5,6 L4,6 L4,5 L3,5 L3,4 L2,4 L2,2 L0,2 Z " fill="#36444D" transform="translate(58,47)"/>
<path d="M0,0 L1,0 L1,3 L-2,3 L-2,5 L-3,5 L-3,10 L-5,10 L-5,1 L0,1 Z " fill="#808080" transform="translate(175,63)"/>
<path d="M0,0 L2,0 L2,1 L3,1 L3,2 L4,2 L4,3 L5,3 L5,4 L4,4 L4,5 L3,5 L3,6 L2,6 L2,7 L0,7 L0,6 L-1,6 L-1,5 L-2,5 L-2,3 L-1,3 L-1,2 L0,2 Z " fill="#CAD2D4" transform="translate(74,43)"/>
<path d="M0,0 L1,0 L1,3 L0,3 L0,4 L-1,4 L-1,5 L-2,5 L-2,7 L-3,7 L-3,9 L-4,9 L-4,11 L-7,11 L-7,9 L-6,9 L-6,7 L-5,7 L-5,6 L-4,6 L-4,4 L-3,4 L-3,3 L-2,3 L-2,2 L-1,2 L-1,1 L0,1 Z " fill="#23333D" transform="translate(30,28)"/>
<path d="M0,0 L8,0 L8,1 L1,1 L1,5 L5,5 L5,6 L4,6 L4,7 L3,7 L3,8 L2,8 L2,10 L1,10 L1,11 L0,11 Z " fill="#F9FAFA" transform="translate(36,28)"/>
<path d="M0,0 L2,0 L2,1 L3,1 L3,2 L5,2 L5,1 L20,1 L20,2 L6,2 L6,5 L4,5 L4,4 L3,4 L3,3 L2,3 L2,2 L1,2 L1,1 L0,1 Z " fill="#223441" transform="translate(37,66)"/>
<path d="M0,0 L1,0 L1,1 L2,1 L2,2 L3,2 L3,3 L4,3 L4,4 L3,4 L3,5 L2,5 L2,6 L1,6 L1,7 L-1,7 L-1,6 L-2,6 L-2,5 L-3,5 L-3,3 L-2,3 L-2,2 L-1,2 L-1,1 L0,1 Z " fill="#D1D8DB" transform="translate(24,43)"/>
<path d="M0,0 L1,0 L1,1 L2,1 L2,3 L3,3 L3,4 L4,4 L4,5 L5,5 L5,6 L6,6 L6,9 L1,9 L1,2 L0,2 Z " fill="#DFE2E4" transform="translate(63,25)"/>
<path d="M0,0 L8,0 L8,1 L9,1 L9,7 L8,7 L8,8 L7,8 L7,2 L0,2 Z " fill="#3D4B54" transform="translate(55,26)"/>
<path d="M0,0 L2,0 L2,1 L1,1 L1,3 L-2,3 L-2,4 L-11,4 L-11,3 L-4,3 L-4,2 L-9,2 L-9,1 L0,1 Z " fill="#2C3E49" transform="translate(56,73)"/>
<path d="M0,0 L3,0 L3,1 L4,1 L4,2 L5,2 L5,3 L6,3 L6,4 L3,4 L3,3 L2,3 L2,2 L1,2 L1,3 L0,3 L0,4 L-1,4 L-1,5 L-2,5 L-2,6 L-5,6 L-5,5 L-4,5 L-4,4 L-3,4 L-3,3 L-2,3 L-2,2 L-1,2 L-1,1 L0,1 Z " fill="#32414A" transform="translate(23,41)"/>
<path d="M0,0 L2,0 L2,12 L0,12 Z " fill="#808080" transform="translate(121,61)"/>
<path d="M0,0 L11,0 L11,1 L14,1 L14,2 L15,2 L15,3 L9,3 L9,2 L7,2 L7,1 L0,1 Z " fill="#23343E" transform="translate(47,21)"/>
<path d="M0,0 L4,0 L4,2 L5,2 L5,4 L4,4 L4,6 L0,6 L0,4 L1,4 L1,1 L0,1 Z " fill="#8D99A0" transform="translate(52,61)"/>
<path d="M0,0 L13,0 L13,2 L14,2 L14,3 L15,3 L15,5 L14,5 L14,6 L13,6 L13,5 L12,5 L12,1 L0,1 Z " fill="#F7F9F9" transform="translate(44,58)"/>
<path d="M0,0 L10,0 L10,1 L9,1 L9,2 L1,2 L1,4 L0,4 L0,3 L-1,3 L-1,1 L0,1 Z " fill="#3A4C56" transform="translate(34,24)"/>
<path d="M0,0 L1,0 L1,2 L3,2 L3,5 L-4,5 L-4,4 L-3,4 L-3,3 L-2,3 L-2,2 L-1,2 L-1,1 L0,1 Z " fill="#EAEDEE" transform="translate(41,59)"/>
<path d="M0,0 L8,0 L8,1 L4,1 L4,2 L8,2 L8,3 L0,3 Z " fill="#4AB0DF" transform="translate(38,30)"/>
<path d="M0,0 L5,0 L5,4 L0,4 Z " fill="#000000" transform="translate(127,27)"/>
<path d="M0,0 L1,0 L1,1 L3,1 L3,4 L2,4 L2,2 L1,2 L1,3 L0,3 L0,4 L-1,4 L-1,5 L-2,5 L-2,6 L-3,6 L-3,8 L-4,8 L-4,4 L-2,4 L-2,2 L-1,2 L-1,1 L0,1 Z " fill="#5D727E" transform="translate(29,26)"/>
<path d="M0,0 L3,0 L3,1 L2,1 L2,3 L1,3 L1,4 L0,4 L0,5 L-1,5 L-1,6 L-2,6 L-2,7 L-3,7 L-3,6 L-4,6 L-4,5 L-3,5 L-3,4 L-2,4 L-2,3 L-1,3 L-1,2 L0,2 Z " fill="#CBD5D7" transform="translate(68,62)"/>
<path d="M0,0 L2,0 L2,9 L0,9 Z " fill="#808080" transform="translate(254,64)"/>
<path d="M0,0 L2,0 L2,9 L0,9 Z " fill="#808080" transform="translate(177,64)"/>
<path d="M0,0 L2,0 L2,9 L0,9 Z " fill="#808080" transform="translate(117,64)"/>
<path d="M0,0 L2,0 L2,1 L3,1 L3,2 L4,2 L4,3 L5,3 L5,4 L4,4 L4,5 L2,5 L2,4 L0,4 L0,3 L-1,3 L-1,2 L0,2 Z " fill="#C0C9CD" transform="translate(36,67)"/>
<path d="M0,0 L2,0 L2,2 L1,2 L1,3 L0,3 L0,4 L-1,4 L-1,5 L-2,5 L-2,6 L-3,6 L-3,7 L-4,7 L-4,4 L-3,4 L-3,3 L-2,3 L-2,2 L-1,2 L-1,1 L0,1 Z " fill="#1D2C35" transform="translate(70,64)"/>
<path d="M0,0 L1,0 L1,3 L0,3 L0,4 L-1,4 L-1,6 L0,6 L0,7 L-1,7 L-1,8 L-2,8 L-2,7 L-3,7 L-3,3 L-2,3 L-2,2 L-1,2 L-1,1 L0,1 Z " fill="#3F4C55" transform="translate(38,59)"/>
<path d="M0,0 L2,0 L2,2 L0,2 Z " fill="#808080" transform="translate(254,61)"/>
<path d="M0,0 L2,0 L2,2 L0,2 Z " fill="#808080" transform="translate(177,61)"/>
<path d="M0,0 L2,0 L2,2 L0,2 Z " fill="#808080" transform="translate(117,61)"/>
</svg>
